<svg xmlns="http://www.w3.org/2000/svg" width="288.0502624511719" height="284.0999450683594" viewBox="-51.014869689941406 -41.823673248291016 288.0502624511719 284.0999450683594"><title>Neo4j Graph Visualization</title><desc>Created using Neo4j (http://www.neo4j.com/)</desc><g class="layer relationships"><g class="relationship" transform="translate(152.60696980845339 205.3408072357188) rotate(238.65094241632391)"><path class="outline" fill="#A5ABB6" stroke="none" d="M 25 0.5 L 37.423439292249185 0.5 L 37.423439292249185 -0.5 L 25 -0.5 Z M 73.19687679224918 0.5 L 85.62031608449837 0.5 L 85.62031608449837 3.5 L 92.62031608449837 0 L 85.62031608449837 -3.5 L 85.62031608449837 -0.5 L 73.19687679224918 -0.5 Z"/><text text-anchor="middle" pointer-events="none" font-size="8px" fill="#000000" x="55.310158042249185" y="3" transform="rotate(180 55.310158042249185 0)" font-family="sans-serif">WROTE</text></g><g class="relationship" transform="translate(208.03538322565623 119.77127109983363) rotate(187.27118996915942)"><path class="outline" fill="#A5ABB6" stroke="none" d="M 25 0.5 L 31.837629818969802 0.5 L 31.837629818969802 -0.5 L 25 -0.5 Z M 78.7282548189698 0.5 L 85.5658846379396 0.5 L 85.5658846379396 3.5 L 92.5658846379396 0 L 85.5658846379396 -3.5 L 85.5658846379396 -0.5 L 78.7282548189698 -0.5 Z"/><text text-anchor="middle" pointer-events="none" font-size="8px" fill="#000000" x="55.2829423189698" y="3" transform="rotate(180 55.2829423189698 0)" font-family="sans-serif">DIRECTED</text></g><g class="relationship" transform="translate(180.81739845014218 29.280246888449643) rotate(499.7774763932604)"><path class="outline" fill="#A5ABB6" stroke="none" d="M 25 0.5 L 37.15782255325407 0.5 L 37.15782255325407 -0.5 L 25 -0.5 Z M 72.93126005325408 0.5 L 85.08908260650814 0.5 L 85.08908260650814 3.5 L 92.08908260650814 0 L 85.08908260650814 -3.5 L 85.08908260650814 -0.5 L 72.93126005325408 -0.5 Z"/><text text-anchor="middle" pointer-events="none" font-size="8px" fill="#000000" x="55.04454130325407" y="3" transform="rotate(180 55.04454130325407 0)" font-family="sans-serif">WROTE</text></g><g class="relationship" transform="translate(96.16121043544335 -12.823672749712257) rotate(452.30891418825064)"><path class="outline" fill="#A5ABB6" stroke="none" d="M 25 0.5 L 32.624132516393 0.5 L 32.624132516393 -0.5 L 25 -0.5 Z M 78.18663251639299 0.5 L 85.810765032786 0.5 L 85.810765032786 3.5 L 92.810765032786 0 L 85.810765032786 -3.5 L 85.810765032786 -0.5 L 78.18663251639299 -0.5 Z"/><text text-anchor="middle" pointer-events="none" font-size="8px" fill="#000000" x="55.405382516393" y="3" transform="rotate(180 55.405382516393 0)" font-family="sans-serif">ACTED_IN</text></g><g class="relationship" transform="translate(0.782864463368599 30.711466692015023) rotate(399.29942696290783)"><path class="outline" fill="#A5ABB6" stroke="none" d="M 25 0.5 L 32.27821185151268 0.5 L 32.27821185151268 -0.5 L 25 -0.5 Z M 77.84071185151268 0.5 L 85.11892370302536 0.5 L 85.11892370302536 3.5 L 92.11892370302536 0 L 85.11892370302536 -3.5 L 85.11892370302536 -0.5 L 77.84071185151268 -0.5 Z"/><text text-anchor="middle" pointer-events="none" font-size="8px" fill="#000000" x="55.05946185151268" y="3" font-family="sans-serif">ACTED_IN</text></g><g class="relationship" transform="translate(-22.014870134339603 133.86576284047115) rotate(345.67087165780754)"><path class="outline" fill="#A5ABB6" stroke="none" d="M 25 0.5 L 32.2547060076845 0.5 L 32.2547060076845 -0.5 L 25 -0.5 Z M 77.81720600768449 0.5 L 85.071912015369 0.5 L 85.071912015369 3.5 L 92.071912015369 0 L 85.071912015369 -3.5 L 85.071912015369 -0.5 L 77.81720600768449 -0.5 Z"/><text text-anchor="middle" pointer-events="none" font-size="8px" fill="#000000" x="55.0359560076845" y="3" font-family="sans-serif">ACTED_IN</text></g><g class="relationship" transform="translate(48.31274127409379 213.276263317219) rotate(291.6866001557239)"><path class="outline" fill="#A5ABB6" stroke="none" d="M 25 0.5 L 32.039132341746296 0.5 L 32.039132341746296 -0.5 L 25 -0.5 Z M 77.6016323417463 0.5 L 84.64076468349259 0.5 L 84.64076468349259 3.5 L 91.64076468349259 0 L 84.64076468349259 -3.5 L 84.64076468349259 -0.5 L 77.6016323417463 -0.5 Z"/><text text-anchor="middle" pointer-events="none" font-size="8px" fill="#000000" x="54.820382341746296" y="3" font-family="sans-serif">ACTED_IN</text></g></g><g class="layer nodes"><g class="node" transform="translate(91.41493885165448,104.89144634576854)"><circle class="outline" cx="0" cy="0" r="25" fill="#57C7E3" stroke="#23b3d7" stroke-width="2px"/><text text-anchor="middle" pointer-events="none" font-family="sans-serif" dy="1.5625" font-size="25" fill="#FFFFFF"/><text text-anchor="middle" pointer-events="none" font-family="sans-serif" dy="1.5625" font-size="25" fill="#FFFFFF"/><text text-anchor="middle" pointer-events="none" font-family="sans-serif" dy="1.5625" font-size="25" fill="#FFFFFF"/><text text-anchor="middle" pointer-events="none" y="-5" font-size="10px" fill="#FFFFFF" font-family="sans-serif"> Captain</text><text text-anchor="middle" pointer-events="none" y="5" font-size="10px" fill="#FFFFFF" font-family="sans-serif"> America:</text><text text-anchor="middle" pointer-events="none" y="15" font-size="10px" fill="#FFFFFF" font-family="sans-serif"> The Fi…</text></g><g class="node" transform="translate(152.60696980845339,205.3408072357188)"><circle class="outline" cx="0" cy="0" r="25" fill="#F79767" stroke="#f36924" stroke-width="2px"/><text text-anchor="middle" pointer-events="none" font-family="sans-serif" dy="1.5625" font-size="25" fill="#FFFFFF"/><text text-anchor="middle" pointer-events="none" y="5" font-size="10px" fill="#FFFFFF" font-family="sans-serif"> Christop…</text></g><g class="node" transform="translate(208.03538322565623,119.77127109983363)"><circle class="outline" cx="0" cy="0" r="25" fill="#F79767" stroke="#f36924" stroke-width="2px"/><text text-anchor="middle" pointer-events="none" font-family="sans-serif" dy="1.5625" font-size="25" fill="#FFFFFF"/><text text-anchor="middle" pointer-events="none" font-family="sans-serif" dy="1.5625" font-size="25" fill="#FFFFFF"/><text text-anchor="middle" pointer-events="none" y="0" font-size="10px" fill="#FFFFFF" font-family="sans-serif"> Joe</text><text text-anchor="middle" pointer-events="none" y="10" font-size="10px" fill="#FFFFFF" font-family="sans-serif"> Johnston</text></g><g class="node" transform="translate(180.81739845014218,29.280246888449643)"><circle class="outline" cx="0" cy="0" r="25" fill="#F79767" stroke="#f36924" stroke-width="2px"/><text text-anchor="middle" pointer-events="none" font-family="sans-serif" dy="1.5625" font-size="25" fill="#FFFFFF"/><text text-anchor="middle" pointer-events="none" font-family="sans-serif" dy="1.5625" font-size="25" fill="#FFFFFF"/><text text-anchor="middle" pointer-events="none" y="0" font-size="10px" fill="#FFFFFF" font-family="sans-serif"> Stephen</text><text text-anchor="middle" pointer-events="none" y="10" font-size="10px" fill="#FFFFFF" font-family="sans-serif"> McFeely</text></g><g class="node" transform="translate(96.16121043544335,-12.823672749712257)"><circle class="outline" cx="0" cy="0" r="25" fill="#F79767" stroke="#f36924" stroke-width="2px"/><text text-anchor="middle" pointer-events="none" font-family="sans-serif" dy="1.5625" font-size="25" fill="#FFFFFF"/><text text-anchor="middle" pointer-events="none" font-family="sans-serif" dy="1.5625" font-size="25" fill="#FFFFFF"/><text text-anchor="middle" pointer-events="none" y="0" font-size="10px" fill="#FFFFFF" font-family="sans-serif"> Chris</text><text text-anchor="middle" pointer-events="none" y="10" font-size="10px" fill="#FFFFFF" font-family="sans-serif"> Evans</text></g><g class="node" transform="translate(0.782864463368599,30.711466692015023)"><circle class="outline" cx="0" cy="0" r="25" fill="#F79767" stroke="#f36924" stroke-width="2px"/><text text-anchor="middle" pointer-events="none" font-family="sans-serif" dy="1.5625" font-size="25" fill="#FFFFFF"/><text text-anchor="middle" pointer-events="none" font-family="sans-serif" dy="1.5625" font-size="25" fill="#FFFFFF"/><text text-anchor="middle" pointer-events="none" y="0" font-size="10px" fill="#FFFFFF" font-family="sans-serif"> Hugo</text><text text-anchor="middle" pointer-events="none" y="10" font-size="10px" fill="#FFFFFF" font-family="sans-serif"> Weaving</text></g><g class="node" transform="translate(-22.014870134339603,133.86576284047115)"><circle class="outline" cx="0" cy="0" r="25" fill="#F79767" stroke="#f36924" stroke-width="2px"/><text text-anchor="middle" pointer-events="none" font-family="sans-serif" dy="1.5625" font-size="25" fill="#FFFFFF"/><text text-anchor="middle" pointer-events="none" font-family="sans-serif" dy="1.5625" font-size="25" fill="#FFFFFF"/><text text-anchor="middle" pointer-events="none" font-family="sans-serif" dy="1.5625" font-size="25" fill="#FFFFFF"/><text text-anchor="middle" pointer-events="none" y="-5" font-size="10px" fill="#FFFFFF" font-family="sans-serif"> Samuel</text><text text-anchor="middle" pointer-events="none" y="5" font-size="10px" fill="#FFFFFF" font-family="sans-serif"> L.</text><text text-anchor="middle" pointer-events="none" y="15" font-size="10px" fill="#FFFFFF" font-family="sans-serif"> Jackson</text></g><g class="node" transform="translate(48.31274127409379,213.276263317219)"><circle class="outline" cx="0" cy="0" r="25" fill="#F79767" stroke="#f36924" stroke-width="2px"/><text text-anchor="middle" pointer-events="none" font-family="sans-serif" dy="1.5625" font-size="25" fill="#FFFFFF"/><text text-anchor="middle" pointer-events="none" font-family="sans-serif" dy="1.5625" font-size="25" fill="#FFFFFF"/><text text-anchor="middle" pointer-events="none" y="0" font-size="10px" fill="#FFFFFF" font-family="sans-serif"> Hayley</text><text text-anchor="middle" pointer-events="none" y="10" font-size="10px" fill="#FFFFFF" font-family="sans-serif"> Atwell</text></g></g></svg>