<svg xmlns="http://www.w3.org/2000/svg" width="370.7899169921875" height="344.3644714355469" viewBox="-87.91156768798828 -58.00928497314453 370.7899169921875 344.3644714355469"><title>Neo4j Graph Visualization</title><desc>Created using Neo4j (http://www.neo4j.com/)</desc><g class="layer relationships"><g class="relationship" transform="translate(168.50442818761505 254.52913583408292) rotate(538.4673290997239)"><path class="outline" fill="#A5ABB6" stroke="none" d="M 21.40063509461097,12.933012701892217 L 21.90063509461097,12.06698729810778 A 58.081445119115926 58.081445119115926 0 0 0 24.46750294469311,13.464071975589441 L 24.01169722816553,14.354151269125012 A 59.081445119115926 59.081445119115926 0 0 1 21.40063509461097,12.933012701892217 Z M 74.52654028282993,15.936679594752277 L 74.12734248763196,15.019814762670094 A 58.081445119115926 58.081445119115926 0 0 0 76.77662668321184,13.786141626507234 L 75.44219351048041,11.09926833073873 L 83.26840323546026,11.120276439428633 L 78.55587091352042,17.368639354198574 L 77.22143774078899,14.681766058430071 A 59.081445119115926 59.081445119115926 0 0 1 74.52654028282993,15.936679594752277"/><text text-anchor="middle" pointer-events="none" font-size="8px" fill="#000000" x="49.10701885576777" y="23.319699431430536" transform="rotate(180 49.10701885576777 20.319699431430536)" font-family="sans-serif">PRODUCED</text></g><g class="relationship" transform="translate(168.50442818761505 254.52913583408292) rotate(538.4673290997239)"><path class="outline" fill="#A5ABB6" stroke="none" d="M 25 0.5 L 25.88419451676556 0.5 L 25.88419451676556 -0.5 L 25 -0.5 Z M 72.77481951676556 0.5 L 73.65901403353112 0.5 L 73.65901403353112 3.5 L 80.65901403353112 0 L 73.65901403353112 -3.5 L 73.65901403353112 -0.5 L 72.77481951676556 -0.5 Z"/><text text-anchor="middle" pointer-events="none" font-size="8px" fill="#000000" x="49.32950701676556" y="3" transform="rotate(180 49.32950701676556 0)" font-family="sans-serif">DIRECTED</text></g><g class="relationship" transform="translate(168.50442818761505 254.52913583408292) rotate(538.4673290997239)"><path class="outline" fill="#A5ABB6" stroke="none" d="M 21.40063509461097,-12.933012701892217 L 21.90063509461097,-12.06698729810778 A 58.081445119115926 58.081445119115926 0 0 1 31.75556874998767,-16.588142046579414 L 31.425243137998606,-17.532009087038 A 59.081445119115926 59.081445119115926 0 0 0 21.40063509461097,-12.933012701892217 Z M 66.92861549779468,-18.6442582600953 L 66.65801856484234,-17.68156552620936 A 58.081445119115926 58.081445119115926 0 0 1 76.77662668321184,-13.786141626507234 L 75.44219351048041,-11.09926833073873 L 83.26840323546026,-11.120276439428633 L 78.55587091352042,-17.368639354198574 L 77.22143774078899,-14.681766058430071 A 59.081445119115926 59.081445119115926 0 0 0 66.92861549779468,-18.6442582600953"/><text text-anchor="middle" pointer-events="none" font-size="8px" fill="#000000" x="49.10701885576776" y="-17.319699431430536" transform="rotate(180 49.10701885576776 -20.319699431430536)" font-family="sans-serif">WROTE</text></g><g class="relationship" transform="translate(231.80413294920788 -29.00928772567419) rotate(438.2541911706753)"><path class="outline" fill="#A5ABB6" stroke="none" d="M 24.018736134675446,6.953439040707552 L 24.277555179777966,5.987513214418485 A 108.57145160844175 108.57145160844175 0 0 0 27.55421912350879,6.811070251553062 L 27.32557987148436,7.7845814699957145 A 109.57145160844175 109.57145160844175 0 0 1 24.018736134675446,6.953439040707552 Z M 74.06346286852616,8.51964088441109 L 73.86555047492612,7.539421172071286 A 108.57145160844175 108.57145160844175 0 0 0 77.16649207864982,6.819311928716199 L 76.48154468867904,3.8985505428833527 L 84.09575987725492,5.707894916423182 L 78.07975526527753,10.713660443159995 L 77.39480787530674,7.792899057327149 A 109.57145160844175 109.57145160844175 0 0 1 74.06346286852616,8.51964088441109"/><text text-anchor="middle" pointer-events="none" font-size="8px" fill="#000000" x="50.6627302964909" y="13.173508965089923" font-family="sans-serif">DIRECTED</text></g><g class="relationship" transform="translate(231.80413294920788 -29.00928772567419) rotate(438.2541911706753)"><path class="outline" fill="#A5ABB6" stroke="none" d="M 24.018736134675446,-6.953439040707552 L 24.277555179777966,-5.987513214418485 A 108.57145160844175 108.57145160844175 0 0 1 32.97066391543716,-7.9383821383216 L 32.791912960121365,-8.922276490360318 A 109.57145160844175 109.57145160844175 0 0 0 24.018736134675446,-6.953439040707552 Z M 68.56405644485764,-9.484874733073568 L 68.41633419059538,-8.495845847956616 A 108.57145160844175 108.57145160844175 0 0 1 77.16649207864982,-6.819311928716199 L 76.48154468867904,-3.8985505428833527 L 84.09575987725492,-5.707894916423182 L 78.07975526527753,-10.713660443159995 L 77.39480787530674,-7.792899057327149 A 109.57145160844175 109.57145160844175 0 0 0 68.56405644485764,-9.484874733073568"/><text text-anchor="middle" pointer-events="none" font-size="8px" fill="#000000" x="50.66273029649089" y="-7.173508965089923" font-family="sans-serif">WROTE</text></g><g class="relationship" transform="translate(148.3028043043789 56.14892578270565) rotate(371.2533121082898)"><path class="outline" fill="#A5ABB6" stroke="none" d="M 24.018736134675446,6.953439040707552 L 24.277555179777966,5.987513214418485 A 106.99250565054076 106.99250565054076 0 0 0 27.166511675708158,6.7186416496437005 L 26.934694115227057,7.6914009305825175 A 107.99250565054076 107.99250565054076 0 0 1 24.018736134675446,6.953439040707552 Z M 73.66494550558821,8.431417197112225 L 73.46404552600613,7.451805438197539 A 106.99250565054076 106.99250565054076 0 0 0 76.37470379145769,6.812519206584236 L 75.69039089539952,3.891609098366512 L 83.30421285997541,5.70260746715145 L 77.28712098620191,10.707066017541202 L 76.60280809014374,7.786155909323478 A 107.99250565054076 107.99250565054076 0 0 1 73.66494550558821,8.431417197112225"/><text text-anchor="middle" pointer-events="none" font-size="8px" fill="#000000" x="50.267224595083434" y="13.119718691776939" font-family="sans-serif">DIRECTED</text></g><g class="relationship" transform="translate(148.3028043043789 56.14892578270565) rotate(371.2533121082898)"><path class="outline" fill="#A5ABB6" stroke="none" d="M 24.018736134675446,-6.953439040707552 L 24.277555179777966,-5.987513214418485 A 106.99250565054076 106.99250565054076 0 0 1 32.579290402460984,-7.861530844394977 L 32.398063102427024,-8.844972080932465 A 107.99250565054076 107.99250565054076 0 0 0 24.018736134675446,-6.953439040707552 Z M 68.16778944882475,-9.41141840976843 L 68.01779259463689,-8.422731935837618 A 106.99250565054076 106.99250565054076 0 0 1 76.37470379145769,-6.812519206584236 L 75.69039089539952,-3.891609098366512 L 83.30421285997541,-5.70260746715145 L 77.28712098620191,-10.707066017541202 L 76.60280809014374,-7.786155909323478 A 107.99250565054076 107.99250565054076 0 0 0 68.16778944882475,-9.41141840976843"/><text text-anchor="middle" pointer-events="none" font-size="8px" fill="#000000" x="50.26722459508341" y="-7.119718691776939" font-family="sans-serif">WROTE</text></g><g class="relationship" transform="translate(-58.911567332395265 116.85378320262514) rotate(280.77353440439134)"><path class="outline" fill="#A5ABB6" stroke="none" d="M 21.40063509461097,12.933012701892217 L 21.90063509461097,12.06698729810778 A 57.94097259567863 57.94097259567863 0 0 0 31.689522964134603,16.562416471843292 L 31.35846883147156,17.506028235889673 A 58.94097259567863 58.94097259567863 0 0 1 21.40063509461097,12.933012701892217 Z M 66.85984929823228,18.619566739813287 L 66.58858251721966,17.657062540591767 A 57.94097259567863 57.94097259567863 0 0 0 76.63995876380571,13.7839443229608 L 75.30573000217404,11.096969516299069 L 83.13193810628836,11.11857301359721 L 78.41893044598126,17.366577398509772 L 77.0847016843496,14.679602591848042 A 58.94097259567863 58.94097259567863 0 0 1 66.85984929823228,18.619566739813287"/><text text-anchor="middle" pointer-events="none" font-size="8px" fill="#000000" x="49.03895926387414" y="23.300878914242624" font-family="sans-serif">WROTE</text></g><g class="relationship" transform="translate(-58.911567332395265 116.85378320262514) rotate(280.77353440439134)"><path class="outline" fill="#A5ABB6" stroke="none" d="M 25 0.5 L 25.816384914234746 0.5 L 25.816384914234746 -0.5 L 25 -0.5 Z M 72.70700991423475 0.5 L 73.52339482846949 0.5 L 73.52339482846949 3.5 L 80.52339482846949 0 L 73.52339482846949 -3.5 L 73.52339482846949 -0.5 L 72.70700991423475 -0.5 Z"/><text text-anchor="middle" pointer-events="none" font-size="8px" fill="#000000" x="49.261697414234746" y="3" font-family="sans-serif">DIRECTED</text></g><g class="relationship" transform="translate(-58.911567332395265 116.85378320262514) rotate(280.77353440439134)"><path class="outline" fill="#A5ABB6" stroke="none" d="M 21.40063509461097,-12.933012701892217 L 21.90063509461097,-12.06698729810778 A 57.94097259567863 57.94097259567863 0 0 1 24.404562995115384,-13.431601514639766 L 23.947778146472565,-14.321178718737507 A 58.94097259567863 58.94097259567863 0 0 0 21.40063509461097,-12.933012701892217 Z M 74.45556860451774,-15.90540921016298 L 74.05543188852135,-14.988953751064379 A 57.94097259567863 57.94097259567863 0 0 1 76.63995876380571,-13.7839443229608 L 75.30573000217404,-11.096969516299069 L 83.13193810628836,-11.11857301359721 L 78.41893044598126,-17.366577398509772 L 77.0847016843496,-14.679602591848042 A 58.94097259567863 58.94097259567863 0 0 0 74.45556860451774,-15.90540921016298"/><text text-anchor="middle" pointer-events="none" font-size="8px" fill="#000000" x="49.03895926387413" y="-17.300878914242624" font-family="sans-serif">PRODUCED</text></g></g><g class="layer nodes"><g class="node" transform="translate(62.88321514802898,257.35519361556925)"><circle class="outline" cx="0" cy="0" r="25" fill="#57C7E3" stroke="#23b3d7" stroke-width="2px"/><text text-anchor="middle" pointer-events="none" font-family="sans-serif" dy="1.5625" font-size="25" fill="#FFFFFF"/><text text-anchor="middle" pointer-events="none" font-family="sans-serif" dy="1.5625" font-size="25" fill="#FFFFFF"/><text text-anchor="middle" pointer-events="none" y="0" font-size="10px" fill="#FFFFFF" font-family="sans-serif"> Jerry</text><text text-anchor="middle" pointer-events="none" y="10" font-size="10px" fill="#FFFFFF" font-family="sans-serif"> Maguire</text></g><g class="node" transform="translate(168.50442818761505,254.52913583408292)"><circle class="outline" cx="0" cy="0" r="25" fill="#F79767" stroke="#f36924" stroke-width="2px"/><text text-anchor="middle" pointer-events="none" font-family="sans-serif" dy="1.5625" font-size="25" fill="#FFFFFF"/><text text-anchor="middle" pointer-events="none" font-family="sans-serif" dy="1.5625" font-size="25" fill="#FFFFFF"/><text text-anchor="middle" pointer-events="none" y="0" font-size="10px" fill="#FFFFFF" font-family="sans-serif"> Cameron</text><text text-anchor="middle" pointer-events="none" y="10" font-size="10px" fill="#FFFFFF" font-family="sans-serif"> Crowe</text></g><g class="node" transform="translate(253.87834957796014,77.15555200267244)"><circle class="outline" cx="0" cy="0" r="25" fill="#57C7E3" stroke="#23b3d7" stroke-width="2px"/><text text-anchor="middle" pointer-events="none" font-family="sans-serif" dy="1.5625" font-size="25" fill="#FFFFFF"/><text text-anchor="middle" pointer-events="none" font-family="sans-serif" dy="1.5625" font-size="25" fill="#FFFFFF"/><text text-anchor="middle" pointer-events="none" y="0" font-size="10px" fill="#FFFFFF" font-family="sans-serif"> Speed</text><text text-anchor="middle" pointer-events="none" y="10" font-size="10px" fill="#FFFFFF" font-family="sans-serif"> Racer</text></g><g class="node" transform="translate(231.80413294920788,-29.00928772567419)"><circle class="outline" cx="0" cy="0" r="25" fill="#F79767" stroke="#f36924" stroke-width="2px"/><text text-anchor="middle" pointer-events="none" font-family="sans-serif" dy="1.5625" font-size="25" fill="#FFFFFF"/><text text-anchor="middle" pointer-events="none" font-family="sans-serif" dy="1.5625" font-size="25" fill="#FFFFFF"/><text text-anchor="middle" pointer-events="none" y="0" font-size="10px" fill="#FFFFFF" font-family="sans-serif"> Lana</text><text text-anchor="middle" pointer-events="none" y="10" font-size="10px" fill="#FFFFFF" font-family="sans-serif"> Wacho…</text></g><g class="node" transform="translate(148.3028043043789,56.14892578270565)"><circle class="outline" cx="0" cy="0" r="25" fill="#F79767" stroke="#f36924" stroke-width="2px"/><text text-anchor="middle" pointer-events="none" font-family="sans-serif" dy="1.5625" font-size="25" fill="#FFFFFF"/><text text-anchor="middle" pointer-events="none" font-family="sans-serif" dy="1.5625" font-size="25" fill="#FFFFFF"/><text text-anchor="middle" pointer-events="none" y="0" font-size="10px" fill="#FFFFFF" font-family="sans-serif"> Lilly</text><text text-anchor="middle" pointer-events="none" y="10" font-size="10px" fill="#FFFFFF" font-family="sans-serif"> Wacho…</text></g><g class="node" transform="translate(-39.1863361332707,13.190375433701464)"><circle class="outline" cx="0" cy="0" r="25" fill="#57C7E3" stroke="#23b3d7" stroke-width="2px"/><text text-anchor="middle" pointer-events="none" font-family="sans-serif" dy="1.5625" font-size="25" fill="#FFFFFF"/><text text-anchor="middle" pointer-events="none" y="5" font-size="10px" fill="#FFFFFF" font-family="sans-serif"> Somethi…</text></g><g class="node" transform="translate(-58.911567332395265,116.85378320262514)"><circle class="outline" cx="0" cy="0" r="25" fill="#F79767" stroke="#f36924" stroke-width="2px"/><text text-anchor="middle" pointer-events="none" font-family="sans-serif" dy="1.5625" font-size="25" fill="#FFFFFF"/><text text-anchor="middle" pointer-events="none" font-family="sans-serif" dy="1.5625" font-size="25" fill="#FFFFFF"/><text text-anchor="middle" pointer-events="none" y="0" font-size="10px" fill="#FFFFFF" font-family="sans-serif"> Nancy</text><text text-anchor="middle" pointer-events="none" y="10" font-size="10px" fill="#FFFFFF" font-family="sans-serif"> Meyers</text></g></g></svg>